{
	"asset":{
		"generator":"Khronos glTF Blender I/O v3.5.30",
		"version":"2.0"
	},
	"scene":0,
	"scenes":[
		{
			"name":"Scene",
			"nodes":[
				0,
				1,
				2,
				3,
				4,
				5
			]
		}
	],
	"nodes":[
		{
			"mesh":0,
			"name":"plank1",
			"rotation":[
				0,
				0.002067808760330081,
				0,
				0.9999978542327881
			],
			"translation":[
				0.00964944064617157,
				0.0670771598815918,
				-0.0073204971849918365
			]
		},
		{
			"mesh":1,
			"name":"plank2",
			"rotation":[
				0.6911646723747253,
				0.0014944087015464902,
				-0.0014291879488155246,
				0.722694456577301
			],
			"translation":[
				0.012918271124362946,
				0.47426897287368774,
				0.7830783128738403
			]
		},
		{
			"mesh":2,
			"name":"back",
			"rotation":[
				0.49896520376205444,
				0.5010327696800232,
				-0.5010328888893127,
				0.4989650249481201
			],
			"translation":[
				0.00964944064617157,
				0.5319093465805054,
				-0.0073204971849918365
			]
		},
		{
			"mesh":3,
			"name":"frame",
			"rotation":[
				-0.0014621614245697856,
				0.0014621613081544638,
				-0.7071051597595215,
				0.7071053981781006
			],
			"translation":[
				0.00964944064617157,
				0.9678980112075806,
				-0.0073204971849918365
			]
		},
		{
			"mesh":4,
			"name":"pillow1",
			"rotation":[
				0.696662425994873,
				-0.001442244742065668,
				0.002240511355921626,
				0.717394232749939
			],
			"scale":[
				0.6649949550628662,
				0.554377019405365,
				0.5458547472953796
			],
			"translation":[
				0.01483473926782608,
				0.6511561870574951,
				0.2476743459701538
			]
		},
		{
			"mesh":5,
			"name":"pillow2",
			"rotation":[
				0.973009467124939,
				-0.0024201772175729275,
				0.0011147663462907076,
				0.23075026273727417
			],
			"scale":[
				0.6649948954582214,
				0.5543769001960754,
				0.5458546280860901
			],
			"translation":[
				0.010897807776927948,
				1.130461573600769,
				-0.5495874881744385
			]
		}
	],
	"materials":[
		{
			"doubleSided":true,
			"name":"Material.001",
			"pbrMetallicRoughness":{
				"baseColorFactor":[
					0.800000011920929,
					0.800000011920929,
					0.800000011920929,
					1
				],
				"metallicFactor":0,
				"roughnessFactor":0.5
			}
		},
		{
			"doubleSided":true,
			"name":"Material",
			"pbrMetallicRoughness":{
				"baseColorFactor":[
					0.800000011920929,
					0.800000011920929,
					0.800000011920929,
					1
				],
				"metallicFactor":0,
				"roughnessFactor":0.5
			}
		}
	],
	"meshes":[
		{
			"name":"Cube.002",
			"primitives":[
				{
					"attributes":{
						"COLOR_0":0,
						"POSITION":1,
						"TEXCOORD_0":2,
						"NORMAL":3
					},
					"indices":4,
					"material":0
				}
			]
		},
		{
			"name":"Cube.001",
			"primitives":[
				{
					"attributes":{
						"POSITION":5,
						"TEXCOORD_0":6,
						"NORMAL":7
					},
					"indices":8,
					"material":1
				}
			]
		},
		{
			"name":"Mesh",
			"primitives":[
				{
					"attributes":{
						"POSITION":9,
						"TEXCOORD_0":10,
						"NORMAL":11
					},
					"indices":12,
					"material":0
				}
			]
		},
		{
			"name":"Plane",
			"primitives":[
				{
					"attributes":{
						"POSITION":13,
						"TEXCOORD_0":14,
						"NORMAL":15
					},
					"indices":16,
					"material":0
				}
			]
		},
		{
			"name":"Cube1",
			"primitives":[
				{
					"attributes":{
						"POSITION":17,
						"TEXCOORD_0":18,
						"NORMAL":19
					},
					"indices":20,
					"material":0
				}
			]
		},
		{
			"name":"Cube1.001",
			"primitives":[
				{
					"attributes":{
						"POSITION":21,
						"TEXCOORD_0":22,
						"NORMAL":23
					},
					"indices":20,
					"material":0
				}
			]
		}
	],
	"accessors":[
		{
			"bufferView":0,
			"componentType":5123,
			"count":188,
			"normalized":true,
			"type":"VEC4"
		},
		{
			"bufferView":1,
			"componentType":5126,
			"count":188,
			"max":[
				0.6790250539779663,
				0.016374621540308,
				0.04798257723450661
			],
			"min":[
				-0.6790250539779663,
				-0.016374621540308,
				-0.04798257723450661
			],
			"type":"VEC3"
		},
		{
			"bufferView":2,
			"componentType":5126,
			"count":188,
			"type":"VEC2"
		},
		{
			"bufferView":3,
			"componentType":5126,
			"count":188,
			"type":"VEC3"
		},
		{
			"bufferView":4,
			"componentType":5123,
			"count":564,
			"type":"SCALAR"
		},
		{
			"bufferView":5,
			"componentType":5126,
			"count":24,
			"max":[
				0.6790250539779663,
				0.016374621540308,
				0.04798257723450661
			],
			"min":[
				-0.6790250539779663,
				-0.016374621540308,
				-0.04798257723450661
			],
			"type":"VEC3"
		},
		{
			"bufferView":6,
			"componentType":5126,
			"count":24,
			"type":"VEC2"
		},
		{
			"bufferView":7,
			"componentType":5126,
			"count":24,
			"type":"VEC3"
		},
		{
			"bufferView":8,
			"componentType":5123,
			"count":36,
			"type":"SCALAR"
		},
		{
			"bufferView":9,
			"componentType":5126,
			"count":13664,
			"max":[
				0.95649653673172,
				0.6364609003067017,
				0.12526839971542358
			],
			"min":[
				-0.8304319977760315,
				-0.6311219334602356,
				-1.0144926309585571
			],
			"type":"VEC3"
		},
		{
			"bufferView":10,
			"componentType":5126,
			"count":13664,
			"type":"VEC2"
		},
		{
			"bufferView":11,
			"componentType":5126,
			"count":13664,
			"type":"VEC3"
		},
		{
			"bufferView":12,
			"componentType":5123,
			"count":64536,
			"type":"SCALAR"
		},
		{
			"bufferView":13,
			"componentType":5126,
			"count":1070,
			"max":[
				0.9906100630760193,
				0.7415286898612976,
				0.848447322845459
			],
			"min":[
				-0.5639037489891052,
				-0.7415286898612976,
				-0.9305014610290527
			],
			"type":"VEC3"
		},
		{
			"bufferView":14,
			"componentType":5126,
			"count":1070,
			"type":"VEC2"
		},
		{
			"bufferView":15,
			"componentType":5126,
			"count":1070,
			"type":"VEC3"
		},
		{
			"bufferView":16,
			"componentType":5123,
			"count":4260,
			"type":"SCALAR"
		},
		{
			"bufferView":17,
			"componentType":5126,
			"count":549,
			"max":[
				0.9902946949005127,
				0.9902946949005127,
				0.2720724642276764
			],
			"min":[
				-0.9902946949005127,
				-0.9902946949005127,
				-0.2702946960926056
			],
			"type":"VEC3"
		},
		{
			"bufferView":18,
			"componentType":5126,
			"count":549,
			"type":"VEC2"
		},
		{
			"bufferView":19,
			"componentType":5126,
			"count":549,
			"type":"VEC3"
		},
		{
			"bufferView":20,
			"componentType":5123,
			"count":2304,
			"type":"SCALAR"
		},
		{
			"bufferView":21,
			"componentType":5126,
			"count":549,
			"max":[
				0.9902946949005127,
				0.9902946949005127,
				0.2720724642276764
			],
			"min":[
				-0.9902946949005127,
				-0.9902946949005127,
				-0.2702946960926056
			],
			"type":"VEC3"
		},
		{
			"bufferView":22,
			"componentType":5126,
			"count":549,
			"type":"VEC2"
		},
		{
			"bufferView":23,
			"componentType":5126,
			"count":549,
			"type":"VEC3"
		}
	],
	"bufferViews":[
		{
			"buffer":0,
			"byteLength":1504,
			"byteOffset":0,
			"target":34962
		},
		{
			"buffer":0,
			"byteLength":2256,
			"byteOffset":1504,
			"target":34962
		},
		{
			"buffer":0,
			"byteLength":1504,
			"byteOffset":3760,
			"target":34962
		},
		{
			"buffer":0,
			"byteLength":2256,
			"byteOffset":5264,
			"target":34962
		},
		{
			"buffer":0,
			"byteLength":1128,
			"byteOffset":7520,
			"target":34963
		},
		{
			"buffer":0,
			"byteLength":288,
			"byteOffset":8648,
			"target":34962
		},
		{
			"buffer":0,
			"byteLength":192,
			"byteOffset":8936,
			"target":34962
		},
		{
			"buffer":0,
			"byteLength":288,
			"byteOffset":9128,
			"target":34962
		},
		{
			"buffer":0,
			"byteLength":72,
			"byteOffset":9416,
			"target":34963
		},
		{
			"buffer":0,
			"byteLength":163968,
			"byteOffset":9488,
			"target":34962
		},
		{
			"buffer":0,
			"byteLength":109312,
			"byteOffset":173456,
			"target":34962
		},
		{
			"buffer":0,
			"byteLength":163968,
			"byteOffset":282768,
			"target":34962
		},
		{
			"buffer":0,
			"byteLength":129072,
			"byteOffset":446736,
			"target":34963
		},
		{
			"buffer":0,
			"byteLength":12840,
			"byteOffset":575808,
			"target":34962
		},
		{
			"buffer":0,
			"byteLength":8560,
			"byteOffset":588648,
			"target":34962
		},
		{
			"buffer":0,
			"byteLength":12840,
			"byteOffset":597208,
			"target":34962
		},
		{
			"buffer":0,
			"byteLength":8520,
			"byteOffset":610048,
			"target":34963
		},
		{
			"buffer":0,
			"byteLength":6588,
			"byteOffset":618568,
			"target":34962
		},
		{
			"buffer":0,
			"byteLength":4392,
			"byteOffset":625156,
			"target":34962
		},
		{
			"buffer":0,
			"byteLength":6588,
			"byteOffset":629548,
			"target":34962
		},
		{
			"buffer":0,
			"byteLength":4608,
			"byteOffset":636136,
			"target":34963
		},
		{
			"buffer":0,
			"byteLength":6588,
			"byteOffset":640744,
			"target":34962
		},
		{
			"buffer":0,
			"byteLength":4392,
			"byteOffset":647332,
			"target":34962
		},
		{
			"buffer":0,
			"byteLength":6588,
			"byteOffset":651724,
			"target":34962
		}
	],
	"buffers":[
		{
			"byteLength":658312,
			"uri":"AsterChair_III.bin"
		}
	]
}
